<svg width="24" height="24" viewBox="0 0 24 24" fill="none" xmlns="http://www.w3.org/2000/svg">
<path d="M12 1.5C6.20859 1.5 1.5 6.20859 1.5 12C1.5 17.7914 6.20859 22.5 12 22.5C17.7914 22.5 22.5 17.7914 22.5 12C22.5 6.20859 17.7914 1.5 12 1.5Z" fill="#333333"/>
<path fill-rule="evenodd" clip-rule="evenodd" d="M15.6074 13.5285C15.5766 13.4843 15.5456 13.441 15.5147 13.3979C15.2635 13.0478 15.0241 12.7141 15.0241 12.0452V9.55169C15.0241 9.46501 15.0246 9.37891 15.0251 9.29348C15.0306 8.33742 15.0356 7.46502 14.346 6.79763C13.7548 6.20802 12.7726 6 12.0214 6C10.5523 6 8.91346 6.56821 8.56978 8.45107C8.5334 8.65107 8.67348 8.75576 8.80047 8.78519L10.2964 8.95307C10.4365 8.94569 10.5376 8.80291 10.5648 8.6591C10.693 8.01028 11.217 7.69859 11.8057 7.69859C12.1232 7.69859 12.4838 7.81899 12.6717 8.1143C12.8655 8.40874 12.8624 8.80192 12.8597 9.1535C12.8594 9.19446 12.859 9.23485 12.859 9.27445V9.48347C12.7202 9.49955 12.5748 9.5148 12.425 9.53051C11.6092 9.61604 10.6639 9.71514 9.95594 10.037C8.9894 10.471 8.31068 11.3543 8.31068 12.6526C8.31068 14.3164 9.32063 15.1481 10.6209 15.1481C11.7183 15.1481 12.3189 14.8796 13.1654 13.9846C13.2077 14.0482 13.2457 14.1068 13.2815 14.162C13.4834 14.4733 13.6152 14.6765 14.0503 15.0518C14.1651 15.1154 14.3171 15.113 14.4188 15.0174C14.7271 14.7331 15.2868 14.2288 15.6024 13.9546C15.7284 13.8472 15.706 13.6736 15.6074 13.5285ZM12.5703 12.8094C12.3253 13.2609 11.935 13.5372 11.5013 13.5372C10.91 13.5372 10.5628 13.0689 10.5628 12.3763C10.5628 11.0128 11.7429 10.7654 12.8587 10.7654C12.8587 10.8469 12.8595 10.929 12.8602 11.0112C12.8657 11.6284 12.8713 12.2579 12.5703 12.8094Z" fill="white"/>
<path d="M17.4524 16.2494C15.9748 17.392 13.8319 18 11.9864 18C9.40087 18 7.07194 16.9984 5.30969 15.3309C5.17146 15.1998 5.29484 15.0207 5.46091 15.1225C7.3625 16.2823 9.71367 16.9804 12.142 16.9804C13.7803 16.9804 15.5809 16.6244 17.2377 15.8874C17.4876 15.7766 17.6971 16.0604 17.4524 16.2494Z" fill="white"/>
<path d="M16.3418 15.4536C16.8176 15.3933 17.8784 15.26 18.0673 15.5134C18.2564 15.7665 17.8592 16.8074 17.6802 17.2766L17.6789 17.28C17.625 17.4215 17.7409 17.478 17.8629 17.3707C18.6559 16.676 18.8608 15.2196 18.6983 15.0086C18.537 14.8004 17.1508 14.6202 16.3048 15.2429C16.1748 15.3395 16.1971 15.4711 16.3418 15.4536Z" fill="white"/>
</svg>
