<svg width="16" height="16" viewBox="0 0 16 16" fill="none" xmlns="http://www.w3.org/2000/svg">
<path d="M12 3.33331H4C3.46957 3.33331 2.96086 3.54403 2.58579 3.9191C2.21071 4.29417 2 4.80288 2 5.33331V10.6666C2 11.1971 2.21071 11.7058 2.58579 12.0809C2.96086 12.4559 3.46957 12.6666 4 12.6666H12C12.5304 12.6666 13.0391 12.4559 13.4142 12.0809C13.7893 11.7058 14 11.1971 14 10.6666V5.33331C14 4.80288 13.7893 4.29417 13.4142 3.9191C13.0391 3.54403 12.5304 3.33331 12 3.33331Z" stroke="white" stroke-width="1.5" stroke-linecap="round" stroke-linejoin="round"/>
<path d="M2 6.66669H14" stroke="white" stroke-width="1.5" stroke-linecap="round" stroke-linejoin="round"/>
<path d="M4.66666 10H4.67333" stroke="white" stroke-width="1.5" stroke-linecap="round" stroke-linejoin="round"/>
<path d="M7.33334 10H8.66667" stroke="white" stroke-width="1.5" stroke-linecap="round" stroke-linejoin="round"/>
</svg>
