<svg width="16" height="16" viewBox="0 0 16 16" fill="none" xmlns="http://www.w3.org/2000/svg">
<path d="M8 14C9.23768 14 10.4247 13.5084 11.2998 12.6332C12.175 11.758 12.6667 10.571 12.6667 9.33335C12.6667 8.09568 12.175 6.90869 11.2998 6.03352C10.4247 5.15835 9.23768 4.66669 8 4.66669C6.76233 4.66669 5.57534 5.15835 4.70017 6.03352C3.825 6.90869 3.33334 8.09568 3.33334 9.33335C3.33334 10.571 3.825 11.758 4.70017 12.6332C5.57534 13.5084 6.76233 14 8 14Z" stroke="white" stroke-width="1.5" stroke-linecap="round" stroke-linejoin="round"/>
<path d="M8 7.33333V3.33333C8 2.97971 8.14048 2.64057 8.39052 2.39052C8.64057 2.14048 8.97971 2 9.33333 2H10.6667" stroke="white" stroke-width="1.5" stroke-linecap="round" stroke-linejoin="round"/>
<path d="M6.66666 7C7.55533 7.44467 8.44466 7.44467 9.33333 7" stroke="white" stroke-width="1.5" stroke-linecap="round" stroke-linejoin="round"/>
<path d="M10.6667 2V2.66667C10.6667 3.02029 10.5262 3.35943 10.2761 3.60948C10.0261 3.85952 9.68696 4 9.33333 4H8" stroke="white" stroke-width="1.5" stroke-linecap="round" stroke-linejoin="round"/>
</svg>
