<svg width="16" height="16" viewBox="0 0 16 16" fill="none" xmlns="http://www.w3.org/2000/svg">
<path d="M4.66666 6.66663L8 2.66663L11.3333 6.66663" stroke="white" stroke-width="1.5" stroke-linecap="round" stroke-linejoin="round"/>
<path d="M14 6.66663L12.6667 12C12.6047 12.382 12.4367 12.7246 12.1933 12.9686C11.9493 13.212 11.6453 13.3413 11.3333 13.3333H4.66667C4.35467 13.3413 4.05067 13.212 3.80667 12.9686C3.56333 12.7246 3.39533 12.382 3.33333 12L2 6.66663H14Z" stroke="white" stroke-width="1.5" stroke-linecap="round" stroke-linejoin="round"/>
<path d="M8 11.3333C8.35362 11.3333 8.69276 11.1928 8.94281 10.9428C9.19285 10.6927 9.33333 10.3536 9.33333 9.99996C9.33333 9.64634 9.19285 9.3072 8.94281 9.05715C8.69276 8.8071 8.35362 8.66663 8 8.66663C7.64638 8.66663 7.30724 8.8071 7.05719 9.05715C6.80714 9.3072 6.66666 9.64634 6.66666 9.99996C6.66666 10.3536 6.80714 10.6927 7.05719 10.9428C7.30724 11.1928 7.64638 11.3333 8 11.3333Z" stroke="white" stroke-width="1.5" stroke-linecap="round" stroke-linejoin="round"/>
</svg>
