<svg width="24" height="24" viewBox="0 0 24 24" fill="none" xmlns="http://www.w3.org/2000/svg">
<path fill-rule="evenodd" clip-rule="evenodd" d="M9.89147 8.72949C9.88034 8.72949 9.85881 8.72949 9.84768 8.72949C9.66297 8.70697 9.51092 8.5377 9.51092 8.34592C9.49979 8.16535 9.40184 3.94554 11.7823 2.98653C12.3802 2.74957 12.9351 2.79467 13.4024 3.14451C13.9781 3.56197 14.3912 4.39688 14.6412 5.61544C14.8148 6.47294 14.8475 7.21757 14.8475 7.25145C14.8586 7.43194 14.7176 7.5674 14.5322 7.53352C14.3475 7.51093 14.1954 7.34174 14.1954 7.16117C14.1628 6.39395 13.9128 4.28408 13.0872 3.67476C12.826 3.48298 12.4996 3.46039 12.1087 3.61836C10.065 4.44198 10.1629 8.40232 10.1629 8.44742C10.1629 8.6054 10.0547 8.72949 9.89147 8.72949Z" fill="#595961"/>
<path opacity="0.46" fill-rule="evenodd" clip-rule="evenodd" d="M13.2822 3.16703C12.8475 2.85108 12.3371 2.80597 11.7822 3.02035C10.8149 3.41522 10.1303 4.45328 9.79348 6.0329C9.54349 7.19499 9.5761 8.24435 9.5761 8.28945C9.5761 8.34585 9.59763 8.40232 9.64139 8.44743C9.68442 8.49253 9.72819 8.52642 9.78234 8.52642C9.79346 8.52642 9.8046 8.52642 9.81498 8.52642C9.9129 8.52642 9.9893 8.44743 9.9893 8.34585C9.9893 8.30075 9.89141 4.27272 11.9892 3.42651C12.4128 3.25731 12.7822 3.27983 13.0871 3.5055C13.9669 4.14862 14.228 6.32626 14.2606 7.10478C14.2606 7.21758 14.3586 7.33045 14.478 7.34167C14.587 7.35296 14.6738 7.27397 14.6738 7.16118C14.6627 7.02579 14.5433 4.09223 13.2822 3.16703Z" fill="#B0BFC9"/>
<path opacity="0.46" fill-rule="evenodd" clip-rule="evenodd" d="M9.79349 8.39101C9.78237 8.39101 9.78237 8.39101 9.77199 8.39101C9.70671 8.37971 9.6518 8.31202 9.64141 8.24433C9.64141 8.19915 9.60879 7.17245 9.85878 6.01029C10.1844 4.46456 10.8698 3.43779 11.8149 3.05414C12.3475 2.83976 12.826 2.88494 13.2392 3.17831C14.4565 4.06962 14.5759 6.95808 14.5759 7.08217C14.5759 7.14986 14.5218 7.19497 14.4565 7.18375C14.3912 7.17245 14.3371 7.11605 14.3259 7.03706C14.3259 7.00318 14.2065 4.1712 13.1086 3.3588C12.7822 3.12191 12.3802 3.08802 11.924 3.26852C9.7935 4.1599 9.89143 8.24433 9.89143 8.28943C9.90181 8.34583 9.85877 8.39101 9.79349 8.39101Z" fill="#B0BFC9"/>
<path opacity="0.62" fill-rule="evenodd" clip-rule="evenodd" d="M10.6741 5.16416C10.7608 4.99496 10.8476 4.82569 10.924 4.6452C10.8914 4.7016 10.674 5.28833 10.0108 5.19805C9.99972 5.19805 10.4018 5.32214 10.6741 5.16416Z" fill="#595961"/>
<path opacity="0.62" fill-rule="evenodd" clip-rule="evenodd" d="M10.4344 5.88616C10.4997 5.70559 10.565 5.5138 10.6087 5.33331C10.5872 5.40101 10.4782 6.01025 9.78235 6.01025C9.78235 6.01025 10.1844 6.08924 10.4344 5.88616Z" fill="#595961"/>
<path opacity="0.62" fill-rule="evenodd" clip-rule="evenodd" d="M14.2496 4.43079C14.1628 4.22763 14.0648 4.03584 13.9669 3.83276C13.9996 3.90046 14.326 4.54358 13.9565 5.00614C13.9565 5.00614 14.2392 4.78055 14.2496 4.43079Z" fill="#595961"/>
<path opacity="0.62" fill-rule="evenodd" clip-rule="evenodd" d="M13.6524 3.41532C13.4781 3.26864 13.3045 3.13325 13.1302 3.00916C13.1954 3.06555 13.7718 3.48301 13.7392 4.11492C13.728 4.11492 13.826 3.74257 13.6524 3.41532Z" fill="#595961"/>
<path opacity="0.62" fill-rule="evenodd" clip-rule="evenodd" d="M10.9892 4.54344C11.1198 4.40805 11.2281 4.26137 11.3475 4.10339C11.3045 4.1485 10.9455 4.61113 10.3046 4.44186C10.3046 4.44186 10.674 4.64502 10.9892 4.54344Z" fill="#595961"/>
<path opacity="0.62" fill-rule="evenodd" clip-rule="evenodd" d="M11.3913 4.02451C11.5433 3.91171 11.6843 3.79884 11.826 3.67474C11.7718 3.70863 11.326 4.0809 10.7066 3.81013C10.7066 3.81013 11.0649 4.06961 11.3913 4.02451Z" fill="#595961"/>
<path opacity="0.62" fill-rule="evenodd" clip-rule="evenodd" d="M11.9781 3.65202C12.1628 3.59562 12.3371 3.52793 12.5107 3.46023C12.4454 3.48275 11.8913 3.68583 11.3475 3.25708C11.3587 3.25708 11.6413 3.59562 11.9781 3.65202Z" fill="#595961"/>
<path opacity="0.62" fill-rule="evenodd" clip-rule="evenodd" d="M12.5107 3.44914C12.6628 3.47173 12.8149 3.48303 12.9669 3.49432C12.9128 3.48303 12.4343 3.44914 12.1628 2.9978C12.1628 2.9978 12.2719 3.30246 12.5107 3.44914Z" fill="#595961"/>
<path opacity="0.62" fill-rule="evenodd" clip-rule="evenodd" d="M13.1413 3.69712C13.2496 3.82129 13.3697 3.94538 13.4996 4.05818C13.4565 4.01307 13.0871 3.64072 13.1739 3.17816C13.1628 3.17816 13.0434 3.43764 13.1413 3.69712Z" fill="#595961"/>
<path opacity="0.74" fill-rule="evenodd" clip-rule="evenodd" d="M14.4565 7.02577C14.4565 6.90161 14.3371 4.04703 13.1524 3.17831C12.9239 3.00904 12.6739 2.93005 12.4128 2.93005C12.217 2.93005 12.0107 2.97516 11.7934 3.06544C10.8476 3.43779 10.1844 4.44198 9.85878 5.97641C9.60879 7.12728 9.64141 8.15405 9.64141 8.19915C9.64141 8.23304 9.67406 8.26685 9.7067 8.26685H9.71707C9.74971 8.26685 9.77199 8.24433 9.77199 8.21045C9.77199 8.16535 9.66292 4.04703 11.8475 3.16702C12.326 2.97516 12.7392 3.00904 13.0871 3.26852C14.2169 4.09221 14.3371 6.96938 14.3371 7.00319C14.3371 7.03707 14.3697 7.07088 14.4024 7.07088C14.4024 7.07088 14.4023 7.07088 14.4127 7.07088C14.435 7.08217 14.4565 7.05958 14.4565 7.02577Z" fill="url(#paint0_linear_3_15081)"/>
<path fill-rule="evenodd" clip-rule="evenodd" d="M14.6412 5.61552C14.3912 4.39696 13.9781 3.57327 13.4024 3.14452C13.0872 2.91892 12.7496 2.81735 12.3802 2.83994C12.674 2.86245 12.9455 2.96403 13.1955 3.14452C13.7718 3.56205 14.185 4.39696 14.435 5.61552C14.6086 6.47302 14.6412 7.21765 14.6412 7.25154C14.6412 7.38692 14.576 7.4885 14.4669 7.52231C14.4892 7.5336 14.5107 7.5336 14.5218 7.5336C14.7065 7.55619 14.8475 7.43203 14.8371 7.25154C14.8475 7.21765 14.8148 6.48432 14.6412 5.61552Z" fill="url(#paint1_linear_3_15081)"/>
<path fill-rule="evenodd" clip-rule="evenodd" d="M11.9025 3.6184C9.85878 4.44202 9.95666 8.40235 9.95666 8.44746C9.95666 8.58284 9.89139 8.68442 9.78235 8.71823C9.8046 8.72953 9.81501 8.72952 9.83727 8.72952C9.84765 8.72952 9.8699 8.72952 9.88028 8.72952C10.0435 8.72952 10.1518 8.60543 10.1518 8.44746C10.1518 8.40235 10.0546 4.45331 12.0976 3.62969C12.2392 3.5733 12.3698 3.53941 12.4892 3.52812C12.3149 3.49431 12.1198 3.52812 11.9025 3.6184Z" fill="url(#paint2_linear_3_15081)"/>
<path fill-rule="evenodd" clip-rule="evenodd" d="M14.9995 4.59988L5.78259 7.55595C5.78259 7.55595 5.39166 7.66883 5.29374 7.79292C5.19582 7.91701 5.1743 8.26678 5.1743 8.26678L3.75 19.6626L14.4454 21.7386L15.2718 4.58858C15.1523 4.56599 15.0322 4.58858 14.9995 4.59988Z" fill="url(#paint3_linear_3_15081)"/>
<path fill-rule="evenodd" clip-rule="evenodd" d="M18.1849 6.06666C18.1849 6.06666 18.1738 5.97638 18.1196 5.94257C18.0758 5.90868 18.0217 5.90869 18.0217 5.90869L16.5106 5.79589L15.4023 4.65632C15.3586 4.62243 15.3148 4.59992 15.2607 4.58862L14.4351 21.7387L20.2278 20.4411L18.1849 6.06666Z" fill="url(#paint4_linear_3_15081)"/>
<path fill-rule="evenodd" clip-rule="evenodd" d="M11.1955 14.1226C11.0323 13.8969 10.8372 13.6939 10.6414 13.5133C10.4455 13.3328 10.2393 13.1861 10.0323 13.0507C9.8914 12.9605 9.76084 12.8702 9.6518 12.7799C9.54349 12.6897 9.45669 12.5994 9.39141 12.5204C9.32613 12.4301 9.27197 12.3511 9.23933 12.2609C9.20669 12.1706 9.19555 12.0804 9.19555 11.9901C9.19555 11.866 9.22821 11.7419 9.27197 11.6403C9.315 11.5388 9.39141 11.4485 9.46707 11.3695C9.5546 11.2906 9.65179 11.2342 9.77196 11.189C9.89139 11.1439 10.0323 11.1214 10.1844 11.1101C10.3476 11.0988 10.5108 11.1101 10.6629 11.1214C10.8149 11.1326 10.9566 11.1665 11.0976 11.2003C11.2281 11.2342 11.3587 11.2793 11.467 11.3244C11.576 11.3695 11.6843 11.4146 11.7607 11.4598L12.4781 9.24838C12.3698 9.19198 12.2392 9.13551 12.0975 9.1017C11.9455 9.05652 11.7823 9.02271 11.5975 9.00012C11.4128 8.9776 11.217 8.96631 11.0108 8.96631C10.8045 8.96631 10.5872 8.9776 10.3587 9.01141C9.86989 9.07911 9.43444 9.21449 9.04351 9.41757C8.67409 9.60943 8.34768 9.85762 8.07618 10.1623C7.81507 10.4556 7.60883 10.7941 7.45676 11.1778C7.31507 11.5501 7.2283 11.9676 7.20679 12.4188C7.19566 12.6897 7.21716 12.9379 7.28244 13.1635C7.3366 13.3892 7.42412 13.6036 7.54355 13.8067C7.65186 14.0097 7.79353 14.1903 7.94561 14.3595C8.09768 14.5288 8.28239 14.6867 8.4671 14.8334C8.61917 14.9462 8.74974 15.059 8.85878 15.1606C8.96709 15.2622 9.05463 15.3637 9.11917 15.4766C9.18445 15.5781 9.2282 15.6796 9.26084 15.7924C9.29348 15.894 9.30461 16.0068 9.29348 16.1197C9.29348 16.2325 9.26087 16.3453 9.2171 16.4356C9.17408 16.5258 9.11916 16.6161 9.03237 16.6838C8.95671 16.7515 8.8588 16.7966 8.74976 16.8192C8.64145 16.8417 8.5109 16.853 8.36921 16.8305C8.20675 16.8079 8.04353 16.7628 7.89145 16.695C7.73938 16.6386 7.58661 16.5597 7.44566 16.4807C7.30472 16.4018 7.17416 16.3115 7.06512 16.2325C6.94569 16.1535 6.84775 16.0632 6.77209 15.9955L6.28247 17.6767C6.35888 17.7895 6.46721 17.8911 6.58664 17.9926C6.70681 18.0942 6.84777 18.1957 7.01097 18.2972C7.17416 18.3875 7.34775 18.4777 7.53246 18.5567C7.71717 18.6357 7.92411 18.7034 8.13033 18.7599H8.14147H8.15184H8.16298H8.17411C8.6192 18.8614 9.0435 18.884 9.44556 18.8276C9.85875 18.7711 10.2393 18.6244 10.5649 18.3988C10.9017 18.1619 11.174 17.8459 11.3802 17.4285C11.5871 17.011 11.7066 16.5033 11.7281 15.9278C11.7392 15.5668 11.6955 15.2509 11.5975 14.9575C11.4996 14.6191 11.3587 14.3595 11.1955 14.1226Z" fill="url(#paint5_linear_3_15081)"/>
<path opacity="0.226763" fill-rule="evenodd" clip-rule="evenodd" d="M6.35299 17.7686C6.32777 17.7387 6.30401 17.7082 6.2825 17.6768L6.77211 15.9956C6.77879 16.0019 6.7862 16.0084 6.79362 16.015C6.86632 16.08 6.95684 16.1609 7.06514 16.2326C7.17419 16.3115 7.30475 16.4018 7.44569 16.4808C7.58663 16.5597 7.73941 16.6387 7.89148 16.6952C8.04355 16.7629 8.20678 16.808 8.36924 16.8306C8.51092 16.8531 8.64148 16.8419 8.74978 16.8193C8.85883 16.7967 8.95673 16.7516 9.0324 16.6839C9.11919 16.6162 9.1741 16.5259 9.21712 16.4356C9.26089 16.3454 9.29351 16.2326 9.29351 16.1198C9.30463 16.0069 9.2935 15.8941 9.26086 15.7925C9.22822 15.6797 9.18447 15.5781 9.11919 15.4766C9.05762 15.3694 8.97601 15.2724 8.87438 15.1758C8.92779 15.2361 8.97306 15.2981 9.01089 15.3638C9.07617 15.4653 9.1192 15.5668 9.15184 15.6797C9.18448 15.7812 9.19561 15.8941 9.18448 16.0069C9.18448 16.1198 9.15185 16.2326 9.10882 16.3228C9.06506 16.4131 9.01089 16.5033 8.9241 16.571C8.84769 16.6387 8.74979 16.6839 8.64148 16.7064C8.53244 16.729 8.40188 16.7403 8.26093 16.7177C8.09774 16.6952 7.93452 16.65 7.78245 16.5823C7.63038 16.5259 7.4783 16.4469 7.33662 16.3679C7.19567 16.289 7.06514 16.1987 6.95684 16.1198C6.84779 16.0481 6.75729 15.9672 6.68459 15.9022C6.67718 15.8956 6.67046 15.8891 6.66304 15.8828L6.17419 17.5639C6.22241 17.6357 6.284 17.703 6.35299 17.7686ZM7.95455 14.3698C7.91375 14.3295 7.87444 14.2885 7.8366 14.2468C7.68453 14.0775 7.5436 13.897 7.43455 13.6939C7.31512 13.4908 7.22832 13.2764 7.17417 13.0508C7.10889 12.8251 7.08661 12.5769 7.09774 12.3061C7.11925 11.8548 7.20681 11.4373 7.34776 11.065C7.49983 10.6814 7.70681 10.3429 7.96718 10.0496C8.23942 9.7449 8.56504 9.49664 8.93446 9.30486C9.32614 9.10178 9.76085 8.96639 10.2497 8.89869C10.4782 8.86481 10.6955 8.85352 10.9018 8.85352C11.1087 8.85352 11.3046 8.86481 11.4893 8.8874C11.674 8.90999 11.8372 8.9438 11.9893 8.98898C12.1302 9.02279 12.2608 9.07918 12.3698 9.13558L12.3527 9.18836C12.2741 9.15419 12.1881 9.1234 12.0976 9.10177C11.9455 9.05667 11.7823 9.02279 11.5976 9.0002C11.4129 8.97768 11.217 8.96639 11.0108 8.96639C10.8046 8.96639 10.5872 8.97768 10.3588 9.01149C9.86992 9.07919 9.43447 9.21457 9.04354 9.41773C8.67412 9.60951 8.34771 9.8577 8.07621 10.1624C7.81509 10.4557 7.60885 10.7942 7.45678 11.1778C7.3151 11.5502 7.22832 11.9676 7.20681 12.4189C7.19568 12.6898 7.21719 12.9379 7.28247 13.1636C7.33662 13.3893 7.42415 13.6037 7.54358 13.8067C7.65188 14.0098 7.79356 14.1904 7.94563 14.3596C7.9486 14.363 7.95158 14.3664 7.95455 14.3698ZM9.43074 12.5667C9.49008 12.6338 9.56429 12.7069 9.65182 12.78C9.76087 12.8702 9.89143 12.9605 10.0324 13.0508C10.2393 13.1862 10.4455 13.3329 10.6414 13.5134C10.6985 13.5659 10.7549 13.6203 10.8113 13.6767C10.7208 13.5794 10.6265 13.4874 10.5323 13.4006C10.3372 13.22 10.1303 13.0733 9.92407 12.9379C9.78238 12.8477 9.65183 12.7575 9.54352 12.6672C9.50272 12.6335 9.4656 12.5998 9.43074 12.5667Z" fill="#22292F"/>
<path opacity="0.41" fill-rule="evenodd" clip-rule="evenodd" d="M16.88 18.5457L16.5106 5.79594L16.4453 5.72825L16.6196 18.3651C16.6196 18.3651 15.087 20.7796 14.8586 20.7119C14.5218 20.6104 15.5217 4.78047 15.5217 4.78047L15.4127 4.66767C15.3697 4.63379 15.3148 4.61127 15.2718 4.59998L14.4565 21.513L14.4454 21.75L14.728 21.3777L16.88 18.5457Z" fill="url(#paint6_linear_3_15081)"/>
<path fill-rule="evenodd" clip-rule="evenodd" d="M12.7169 5.3334C12.5871 5.86365 12.4239 6.3601 12.3045 6.66475C12.2281 6.84532 12.3149 7.01451 12.4781 7.0371C12.6524 7.05969 12.8475 6.93553 12.9128 6.75504C12.9239 6.72115 13.2169 5.98782 13.4023 5.11902V5.10773L12.7169 5.3334Z" fill="url(#paint7_linear_3_15081)"/>
<path fill-rule="evenodd" clip-rule="evenodd" d="M7.81514 6.91287C7.66307 7.25134 7.51099 7.54471 7.40195 7.74779C7.30477 7.91706 7.35891 8.09755 7.52211 8.14265C7.68456 8.19912 7.9019 8.09755 7.99982 7.92828C8.01095 7.90576 8.32625 7.35292 8.60888 6.65332L7.81514 6.91287Z" fill="url(#paint8_linear_3_15081)"/>
<path opacity="0.32" fill-rule="evenodd" clip-rule="evenodd" d="M14.4454 21.7386L16.88 18.5455L20.25 20.441L14.4454 21.7386Z" fill="url(#paint9_linear_3_15081)"/>
<path opacity="0.19" fill-rule="evenodd" clip-rule="evenodd" d="M14.4454 21.7386L16.8585 18.5455L20.25 20.441L14.4454 21.7386Z" fill="url(#paint10_linear_3_15081)"/>
<path opacity="0.19" fill-rule="evenodd" clip-rule="evenodd" d="M14.4454 21.7386L16.8585 18.5455L20.25 20.441L14.4454 21.7386Z" fill="url(#paint11_linear_3_15081)"/>
<path opacity="0.6" fill-rule="evenodd" clip-rule="evenodd" d="M12.076 12.8026C13.3371 14.574 14.1849 16.4921 14.6085 18.3538L15.2717 4.57738C15.1523 4.55487 15.0321 4.57738 14.9995 4.58868L5.78254 7.55612C5.78254 7.55612 5.69572 7.57864 5.58667 7.62382C7.9241 8.45873 10.2608 10.2527 12.076 12.8026Z" fill="url(#paint12_linear_3_15081)"/>
<path fill-rule="evenodd" clip-rule="evenodd" d="M18.1299 5.95386C18.1847 5.99904 18.1848 6.06674 18.1848 6.06674L20.2062 20.4298L16.8799 18.5343L16.5105 5.78467L18 5.89746C18.0104 5.90876 18.0757 5.90876 18.1299 5.95386Z" fill="url(#paint13_linear_3_15081)"/>
<path fill-rule="evenodd" clip-rule="evenodd" d="M17.8911 5.98786C17.8911 5.98786 17.9564 5.98786 18.0105 6.04426C18.0647 6.08944 18.0758 6.15714 18.0758 6.15714L20.0653 20.3623L20.2174 20.4526L18.1952 6.07815C18.1952 6.07815 18.1848 6.01045 18.1411 5.96535C18.0869 5.92017 18.0105 5.92017 18.0105 5.92017L16.5217 5.80737L17.8911 5.98786Z" fill="url(#paint14_linear_3_15081)"/>
<path fill-rule="evenodd" clip-rule="evenodd" d="M3.75 19.6624L14.4454 21.7385L14.9676 9.98163L5.08004 10.2627L3.75 19.6624Z" fill="url(#paint15_linear_3_15081)"/>
<path opacity="0.3" fill-rule="evenodd" clip-rule="evenodd" d="M7.26093 7.72037C7.16375 7.99461 7.25943 8.28273 7.47603 8.36408C7.6919 8.44536 7.94561 8.28901 8.04353 8.01484C8.1407 7.74067 8.04429 7.45247 7.82842 7.37119C7.61255 7.28984 7.3581 7.4462 7.26093 7.72037Z" fill="white"/>
<path opacity="0.89" fill-rule="evenodd" clip-rule="evenodd" d="M7.24915 7.59025C7.15198 7.86442 7.2484 8.15262 7.46426 8.2339C7.68013 8.31525 7.93458 8.15889 8.03175 7.88472C8.12893 7.61048 8.03325 7.32228 7.81665 7.24101C7.60078 7.15966 7.34707 7.31601 7.24915 7.59025Z" fill="#22292F"/>
<path fill-rule="evenodd" clip-rule="evenodd" d="M16.5217 5.79589L15.4127 4.65632C15.3697 4.62243 15.3148 4.59992 15.2718 4.58862L14.4454 21.7387L16.8911 18.5342L16.5217 5.79589Z" fill="url(#paint16_linear_3_15081)"/>
<path fill-rule="evenodd" clip-rule="evenodd" d="M14.9995 4.60011L5.78259 7.55619C5.78259 7.55619 5.39166 7.66906 5.29374 7.79315C5.28261 7.80445 5.28257 7.81574 5.27219 7.82704L14.5648 5.16425C14.6412 5.14166 14.8259 5.07397 14.8044 5.62681L14.2392 21.7163L14.435 21.7501L15.2606 4.60011C15.1523 4.56623 15.0322 4.58882 14.9995 4.60011Z" fill="url(#paint17_linear_3_15081)"/>
<path fill-rule="evenodd" clip-rule="evenodd" d="M14.9995 4.60011L5.78259 7.55619C5.78259 7.55619 5.39166 7.66906 5.29374 7.79315C5.28261 7.80445 5.28257 7.81574 5.27219 7.82704L7.42417 7.20643L14.8259 4.82578C14.8586 4.81448 14.978 4.7919 15.0975 4.81449L14.2822 21.7163L14.435 21.7501L15.2606 4.60011C15.1523 4.56623 15.0322 4.58882 14.9995 4.60011Z" fill="url(#paint18_linear_3_15081)"/>
<path opacity="0.32" fill-rule="evenodd" clip-rule="evenodd" d="M17.3696 18.8164L16.88 18.5343L14.4351 21.7386L14.5649 21.7048C14.5649 21.7048 16.7176 18.8277 16.9127 18.7374C17.0544 18.681 17.3696 18.8164 17.3696 18.8164Z" fill="url(#paint19_linear_3_15081)"/>
<path opacity="0.57" fill-rule="evenodd" clip-rule="evenodd" d="M14.4454 21.7386L16.8911 18.5343C16.88 18.5456 15.337 20.2944 14.4454 21.7386Z" fill="url(#paint20_linear_3_15081)"/>
<path opacity="0.46" fill-rule="evenodd" clip-rule="evenodd" d="M20.2499 20.441L16.891 18.5455C16.8799 18.5455 17.2716 18.6132 20.2499 20.441Z" fill="url(#paint21_linear_3_15081)"/>
<path opacity="0.3" fill-rule="evenodd" clip-rule="evenodd" d="M12.2303 6.59534C12.1324 6.86958 12.2289 7.15778 12.4447 7.23913C12.6613 7.32048 12.915 7.16413 13.0122 6.88996C13.1101 6.61571 13.0137 6.32752 12.7978 6.24617C12.582 6.16489 12.3275 6.32117 12.2303 6.59534Z" fill="white"/>
<path opacity="0.89" fill-rule="evenodd" clip-rule="evenodd" d="M12.2185 6.46573C12.1213 6.73997 12.2178 7.02817 12.4336 7.10952C12.6495 7.19079 12.9039 7.03451 13.0011 6.76027C13.0983 6.4861 13.0026 6.19791 12.7867 6.11656C12.5701 6.03521 12.3164 6.19156 12.2185 6.46573Z" fill="#22292F"/>
<path fill-rule="evenodd" clip-rule="evenodd" d="M7.64152 8.14282C7.6304 8.14282 7.60887 8.14282 7.59774 8.14282C7.42416 8.1203 7.30475 7.95103 7.32626 7.75925C7.34778 7.57868 7.96716 3.35887 10.5108 2.39986C11.1517 2.1629 11.6955 2.208 12.1087 2.55784C12.6086 2.9753 12.8801 3.81021 12.9239 5.02877C12.9565 5.88627 12.8587 6.6309 12.8587 6.66478C12.8372 6.84527 12.6739 6.98073 12.4996 6.94685C12.326 6.92426 12.1955 6.75507 12.2281 6.5745C12.326 5.80728 12.4343 3.69741 11.7066 3.08809C11.4781 2.89631 11.1629 2.87372 10.7393 3.03169C8.55471 3.85531 7.97829 7.81565 7.97829 7.84945C7.93452 8.01873 7.80472 8.14282 7.64152 8.14282Z" fill="#595961"/>
<path opacity="0.46" fill-rule="evenodd" clip-rule="evenodd" d="M11.9781 2.58029C11.5976 2.26441 11.0976 2.21931 10.4997 2.43368C9.4671 2.82855 8.59766 3.86655 7.99977 5.43487C7.55468 6.59703 7.40189 7.64631 7.40189 7.69149C7.39151 7.74789 7.41304 7.80429 7.44568 7.84947C7.47832 7.89457 7.52206 7.92846 7.57621 7.92846C7.58659 7.92846 7.59772 7.92846 7.60885 7.92846C7.70677 7.92846 7.79354 7.84947 7.80467 7.74789C7.81506 7.70279 8.39147 3.67476 10.6414 2.82855C11.0976 2.65928 11.467 2.68187 11.7281 2.90754C12.4996 3.55067 12.3913 5.72823 12.2934 6.50674C12.2822 6.61961 12.3587 6.73241 12.467 6.74371C12.576 6.755 12.6843 6.67601 12.6954 6.56322C12.7065 6.43905 13.0871 3.50556 11.9781 2.58029Z" fill="#B0BFC9"/>
<path opacity="0.81" fill-rule="evenodd" clip-rule="evenodd" d="M7.59779 7.80434C7.58666 7.80434 7.58667 7.80434 7.57628 7.80434C7.511 7.79304 7.46722 7.72535 7.47835 7.65766C7.48948 7.61248 7.63044 6.58578 8.07627 5.42362C8.67417 3.87789 9.52203 2.85112 10.5324 2.46747C11.1088 2.25309 11.5761 2.29827 11.9344 2.59164C12.9996 3.48295 12.6302 6.37141 12.6087 6.4955C12.5976 6.56319 12.5434 6.6083 12.467 6.59707C12.4025 6.58578 12.3587 6.52938 12.3587 6.45039C12.3587 6.41651 12.7281 3.58452 11.7719 2.77213C11.4893 2.55775 11.0977 2.53524 10.6199 2.71573C8.32627 3.58452 7.72837 7.65766 7.72837 7.70276C7.71724 7.75916 7.66307 7.80434 7.59779 7.80434Z" fill="#B0BFC9"/>
<path opacity="0.42" fill-rule="evenodd" clip-rule="evenodd" d="M9.0324 4.57731C9.15183 4.40811 9.26086 4.23884 9.36916 4.05835C9.32614 4.11475 9.01087 4.70148 8.35882 4.61119C8.34769 4.61119 8.72825 4.73528 9.0324 4.57731Z" fill="#595961"/>
<path opacity="0.42" fill-rule="evenodd" clip-rule="evenodd" d="M8.66302 5.2993C8.76094 5.11874 8.85884 4.92695 8.9345 4.74646C8.90186 4.81415 8.6845 5.4234 7.99982 5.4234C7.99982 5.4234 8.3804 5.50238 8.66302 5.2993Z" fill="#595961"/>
<path opacity="0.42" fill-rule="evenodd" clip-rule="evenodd" d="M8.38036 6.04424C8.46715 5.85238 8.53245 5.6606 8.59773 5.46881C8.56509 5.5365 8.44566 6.15704 7.72833 6.23603C7.72833 6.22473 8.11924 6.26991 8.38036 6.04424Z" fill="#595961"/>
<path opacity="0.62" fill-rule="evenodd" clip-rule="evenodd" d="M12.728 3.84393C12.6739 3.64078 12.6197 3.44899 12.5433 3.24591C12.5648 3.3136 12.7822 3.95673 12.3371 4.41929C12.3371 4.41929 12.6627 4.19369 12.728 3.84393Z" fill="#595961"/>
<path opacity="0.62" fill-rule="evenodd" clip-rule="evenodd" d="M12.3045 2.82846C12.1525 2.68178 11.9996 2.54639 11.8476 2.4223C11.9025 2.4787 12.4128 2.89616 12.2719 3.52799C12.2608 3.52799 12.424 3.15564 12.3045 2.82846Z" fill="#595961"/>
<path opacity="0.62" fill-rule="evenodd" clip-rule="evenodd" d="M12.8371 4.88202C12.826 4.67894 12.7934 4.46457 12.7607 4.26141C12.7607 4.3404 12.8698 5.00612 12.3475 5.36717C12.3475 5.36717 12.7065 5.2092 12.8371 4.88202Z" fill="#595961"/>
<path opacity="0.62" fill-rule="evenodd" clip-rule="evenodd" d="M12.8913 5.94268C12.9024 5.7396 12.9024 5.52522 12.8913 5.32214C12.8913 5.40113 12.9024 6.06685 12.3475 6.37143C12.3475 6.36021 12.7281 6.24734 12.8913 5.94268Z" fill="#595961"/>
<path opacity="0.42" fill-rule="evenodd" clip-rule="evenodd" d="M8.1303 6.86774C8.19558 6.66466 8.23936 6.46157 8.28239 6.26971C8.26088 6.33741 8.16296 6.98053 7.49979 7.13851C7.51091 7.13851 7.90183 7.12722 8.1303 6.86774Z" fill="#595961"/>
<path opacity="0.42" fill-rule="evenodd" clip-rule="evenodd" d="M9.44561 3.95659C9.59768 3.8212 9.73934 3.67452 9.86989 3.51654C9.815 3.56164 9.38032 4.02428 8.77203 3.85501C8.78242 3.85501 9.11921 4.05816 9.44561 3.95659Z" fill="#595961"/>
<path opacity="0.42" fill-rule="evenodd" clip-rule="evenodd" d="M9.93439 3.43784C10.1087 3.32504 10.2719 3.21217 10.4344 3.08807C10.3698 3.12196 9.86984 3.49423 9.29346 3.22346C9.29346 3.22346 9.59761 3.48294 9.93439 3.43784Z" fill="#595961"/>
<path opacity="0.62" fill-rule="evenodd" clip-rule="evenodd" d="M10.5976 3.06553C10.7934 3.00906 10.9781 2.94137 11.1629 2.87367C11.0976 2.89626 10.5108 3.09934 10.0323 2.67059C10.0323 2.67059 10.2608 3.00906 10.5976 3.06553Z" fill="#595961"/>
<path opacity="0.62" fill-rule="evenodd" clip-rule="evenodd" d="M11.1517 2.86247C11.3046 2.88506 11.4566 2.89636 11.6087 2.90765C11.5546 2.89636 11.0872 2.86247 10.8802 2.41113C10.8913 2.41113 10.9455 2.71579 11.1517 2.86247Z" fill="#595961"/>
<path opacity="0.62" fill-rule="evenodd" clip-rule="evenodd" d="M11.7392 3.11052C11.8371 3.23462 11.9343 3.35871 12.0323 3.47158C11.9996 3.4264 11.6955 3.05413 11.8475 2.59149C11.8587 2.59149 11.6955 2.85104 11.7392 3.11052Z" fill="#595961"/>
<path fill-rule="evenodd" clip-rule="evenodd" d="M12.4892 6.43903C12.4995 6.31494 12.8697 3.46037 11.8371 2.59157C11.6413 2.42237 11.4024 2.34338 11.1413 2.34338C10.9455 2.34338 10.7281 2.38849 10.4997 2.47877C9.49971 2.85112 8.66293 3.85531 8.07616 5.38974C7.63033 6.54061 7.48937 7.56738 7.47824 7.61248C7.47824 7.64629 7.4998 7.68018 7.53244 7.68018H7.54353C7.57617 7.68018 7.59768 7.65759 7.59768 7.62378C7.60881 7.5786 8.19557 3.46037 10.5323 2.58027C11.0322 2.38849 11.4566 2.42237 11.7607 2.68185C12.7495 3.50547 12.3801 6.38263 12.3698 6.41652C12.3698 6.45033 12.3913 6.48421 12.4239 6.48421C12.4239 6.48421 12.4239 6.48421 12.4343 6.48421C12.4669 6.49551 12.4892 6.47291 12.4892 6.43903Z" fill="url(#paint22_linear_3_15081)"/>
<path fill-rule="evenodd" clip-rule="evenodd" d="M12.9239 5.02867C12.8801 3.81011 12.6086 2.98642 12.1086 2.55767C11.8371 2.33207 11.5108 2.23049 11.1414 2.25308C11.424 2.2756 11.6844 2.37718 11.9025 2.55767C12.4024 2.9752 12.6739 3.81011 12.7169 5.02867C12.7496 5.88617 12.6524 6.6308 12.6524 6.66468C12.6302 6.80007 12.5434 6.90165 12.4343 6.93546C12.4566 6.94675 12.4669 6.94675 12.4892 6.94675C12.6628 6.96934 12.826 6.84517 12.8475 6.66468C12.8586 6.6308 12.9565 5.89746 12.9239 5.02867Z" fill="url(#paint23_linear_3_15081)"/>
<path fill-rule="evenodd" clip-rule="evenodd" d="M10.522 3.0316C8.33735 3.85522 7.76098 7.81555 7.76098 7.86066C7.73947 7.99604 7.65191 8.09762 7.54361 8.13143C7.56512 8.14273 7.57625 8.14272 7.59776 8.14272C7.60889 8.14272 7.63042 8.14272 7.64154 8.14272C7.80474 8.14272 7.93455 8.01863 7.9568 7.86066C7.96719 7.81555 8.53245 3.86651 10.7171 3.04282C10.8699 2.98642 10.9997 2.95261 11.1199 2.94132C10.9567 2.91873 10.7497 2.95261 10.522 3.0316Z" fill="url(#paint24_linear_3_15081)"/>
<defs>
<linearGradient id="paint0_linear_3_15081" x1="10.2082" y1="2.95552" x2="9.86727" y2="7.59665" gradientUnits="userSpaceOnUse">
<stop stop-color="white" stop-opacity="0.65"/>
<stop offset="1" stop-color="white" stop-opacity="0.01"/>
</linearGradient>
<linearGradient id="paint1_linear_3_15081" x1="12.6992" y1="5.61212" x2="15.0992" y2="7.71423" gradientUnits="userSpaceOnUse">
<stop stop-opacity="0.01"/>
<stop offset="1" stop-opacity="0.4"/>
</linearGradient>
<linearGradient id="paint2_linear_3_15081" x1="11.737" y1="8.04388" x2="14.2773" y2="5.67772" gradientUnits="userSpaceOnUse">
<stop stop-opacity="0.01"/>
<stop offset="1" stop-opacity="0.4"/>
</linearGradient>
<linearGradient id="paint3_linear_3_15081" x1="8.50351" y1="1.13879" x2="-1.36336" y2="12.5076" gradientUnits="userSpaceOnUse">
<stop stop-color="#B8D26E"/>
<stop offset="1" stop-color="#7FB525"/>
</linearGradient>
<linearGradient id="paint4_linear_3_15081" x1="22.0007" y1="3.98506" x2="16.5856" y2="4.08562" gradientUnits="userSpaceOnUse">
<stop stop-color="#B4E034"/>
<stop offset="1" stop-color="#60A927"/>
</linearGradient>
<linearGradient id="paint5_linear_3_15081" x1="5.89376" y1="11.5658" x2="1.45407" y2="22.3773" gradientUnits="userSpaceOnUse">
<stop stop-color="white"/>
<stop offset="1" stop-color="#CECEEB"/>
</linearGradient>
<linearGradient id="paint6_linear_3_15081" x1="12.2593" y1="38.1913" x2="19.2908" y2="38.177" gradientUnits="userSpaceOnUse">
<stop stop-color="#1D1D1B" stop-opacity="0.5"/>
<stop offset="0.038033" stop-color="#1D1D1B" stop-opacity="0.4837"/>
<stop offset="0.4243" stop-color="#1D1D1B" stop-opacity="0.3185"/>
<stop offset="1" stop-color="#1D1D1B" stop-opacity="0.01"/>
</linearGradient>
<linearGradient id="paint7_linear_3_15081" x1="13.076" y1="4.35047" x2="11.9094" y2="4.97831" gradientUnits="userSpaceOnUse">
<stop stop-opacity="0.01"/>
<stop offset="1" stop-opacity="0.4"/>
</linearGradient>
<linearGradient id="paint8_linear_3_15081" x1="8.1853" y1="6.21254" x2="7.36528" y2="6.91727" gradientUnits="userSpaceOnUse">
<stop stop-opacity="0.01"/>
<stop offset="1" stop-opacity="0.4"/>
</linearGradient>
<linearGradient id="paint9_linear_3_15081" x1="16.1842" y1="20.4495" x2="16.2672" y2="21.5438" gradientUnits="userSpaceOnUse">
<stop stop-opacity="0.01"/>
<stop offset="1" stop-opacity="0.4"/>
</linearGradient>
<linearGradient id="paint10_linear_3_15081" x1="14.2458" y1="18.8473" x2="14.4383" y2="21.6926" gradientUnits="userSpaceOnUse">
<stop stop-color="white" stop-opacity="0.5"/>
<stop offset="0.0896271" stop-color="white" stop-opacity="0.4552"/>
<stop offset="1" stop-color="white" stop-opacity="0.01"/>
</linearGradient>
<linearGradient id="paint11_linear_3_15081" x1="13.8757" y1="19.2899" x2="14.218" y2="22.3293" gradientUnits="userSpaceOnUse">
<stop stop-opacity="0.01"/>
<stop offset="1" stop-opacity="0.4"/>
</linearGradient>
<linearGradient id="paint12_linear_3_15081" x1="12.5322" y1="1.8029" x2="3.75129" y2="6.88144" gradientUnits="userSpaceOnUse">
<stop stop-color="white" stop-opacity="0.5"/>
<stop offset="1" stop-color="white" stop-opacity="0.01"/>
</linearGradient>
<linearGradient id="paint13_linear_3_15081" x1="14.2265" y1="28.3451" x2="21.9769" y2="28.3607" gradientUnits="userSpaceOnUse">
<stop stop-color="#1D1D1B" stop-opacity="0.5"/>
<stop offset="0.0896271" stop-color="#1D1D1B" stop-opacity="0.4552"/>
<stop offset="1" stop-color="#1D1D1B" stop-opacity="0.01"/>
</linearGradient>
<linearGradient id="paint14_linear_3_15081" x1="19.7768" y1="5.3798" x2="18.6758" y2="5.64957" gradientUnits="userSpaceOnUse">
<stop stop-color="white" stop-opacity="0.4"/>
<stop offset="1" stop-color="white" stop-opacity="0.01"/>
</linearGradient>
<linearGradient id="paint15_linear_3_15081" x1="9.89884" y1="21.864" x2="10.4713" y2="19.1039" gradientUnits="userSpaceOnUse">
<stop stop-color="#1D1D1B" stop-opacity="0.5"/>
<stop offset="0.0896271" stop-color="#1D1D1B" stop-opacity="0.4552"/>
<stop offset="1" stop-color="#1D1D1B" stop-opacity="0.01"/>
</linearGradient>
<linearGradient id="paint16_linear_3_15081" x1="13.2088" y1="37.8399" x2="20.2656" y2="37.846" gradientUnits="userSpaceOnUse">
<stop stop-color="#1D1D1B" stop-opacity="0.5"/>
<stop offset="1" stop-color="#1D1D1B" stop-opacity="0.01"/>
</linearGradient>
<linearGradient id="paint17_linear_3_15081" x1="6.76025" y1="3.60582" x2="3.33773" y2="16.7551" gradientUnits="userSpaceOnUse">
<stop stop-color="white" stop-opacity="0.5"/>
<stop offset="1" stop-color="white" stop-opacity="0.01"/>
</linearGradient>
<linearGradient id="paint18_linear_3_15081" x1="6.76025" y1="3.60582" x2="3.33773" y2="16.7551" gradientUnits="userSpaceOnUse">
<stop stop-color="white" stop-opacity="0.5"/>
<stop offset="1" stop-color="white" stop-opacity="0.01"/>
</linearGradient>
<linearGradient id="paint19_linear_3_15081" x1="15.0663" y1="17.3896" x2="12.3612" y2="21.113" gradientUnits="userSpaceOnUse">
<stop stop-color="white" stop-opacity="0.5"/>
<stop offset="0.0896271" stop-color="white" stop-opacity="0.4552"/>
<stop offset="1" stop-color="white" stop-opacity="0.01"/>
</linearGradient>
<linearGradient id="paint20_linear_3_15081" x1="15.8823" y1="18.2457" x2="15.6144" y2="18.8461" gradientUnits="userSpaceOnUse">
<stop stop-opacity="0.01"/>
<stop offset="1" stop-opacity="0.4"/>
</linearGradient>
<linearGradient id="paint21_linear_3_15081" x1="18.5386" y1="19.0395" x2="18.5254" y2="19.2009" gradientUnits="userSpaceOnUse">
<stop stop-opacity="0.01"/>
<stop offset="1" stop-opacity="0.4"/>
</linearGradient>
<linearGradient id="paint22_linear_3_15081" x1="8.79718" y1="1.96358" x2="7.6277" y2="6.58356" gradientUnits="userSpaceOnUse">
<stop stop-color="white" stop-opacity="0.65"/>
<stop offset="1" stop-color="white" stop-opacity="0.01"/>
</linearGradient>
<linearGradient id="paint23_linear_3_15081" x1="11.4143" y1="4.62863" x2="13.4487" y2="6.69691" gradientUnits="userSpaceOnUse">
<stop stop-opacity="0.01"/>
<stop offset="1" stop-opacity="0.4"/>
</linearGradient>
<linearGradient id="paint24_linear_3_15081" x1="10.114" y1="7.67441" x2="12.9248" y2="4.78776" gradientUnits="userSpaceOnUse">
<stop stop-opacity="0.01"/>
<stop offset="1" stop-opacity="0.4"/>
</linearGradient>
</defs>
</svg>
