<svg width="16" height="16" viewBox="0 0 16 16" fill="none" xmlns="http://www.w3.org/2000/svg">
<path d="M4.66667 12.6667C5.02029 12.6667 5.35943 12.5262 5.60948 12.2761C5.85953 12.0261 6 11.687 6 11.3333C6 10.9797 5.85953 10.6406 5.60948 10.3905C5.35943 10.1405 5.02029 10 4.66667 10C4.31305 10 3.97391 10.1405 3.72386 10.3905C3.47381 10.6406 3.33334 10.9797 3.33334 11.3333C3.33334 11.687 3.47381 12.0261 3.72386 12.2761C3.97391 12.5262 4.31305 12.6667 4.66667 12.6667Z" stroke="white" stroke-width="1.5" stroke-linecap="round" stroke-linejoin="round"/>
<path d="M11.3333 12.6667C11.687 12.6667 12.0261 12.5262 12.2761 12.2761C12.5262 12.0261 12.6667 11.687 12.6667 11.3333C12.6667 10.9797 12.5262 10.6406 12.2761 10.3905C12.0261 10.1405 11.687 10 11.3333 10C10.9797 10 10.6406 10.1405 10.3905 10.3905C10.1405 10.6406 10 10.9797 10 11.3333C10 11.687 10.1405 12.0261 10.3905 12.2761C10.6406 12.5262 10.9797 12.6667 11.3333 12.6667Z" stroke="white" stroke-width="1.5" stroke-linecap="round" stroke-linejoin="round"/>
<path d="M8 7.33333V4" stroke="white" stroke-width="1.5" stroke-linecap="round" stroke-linejoin="round"/>
<path d="M3.33333 11.3333H2V7.33333L3.33333 4H9.33333L12 7.33333H12.6667C13.0203 7.33333 13.3594 7.47381 13.6095 7.72386C13.8595 7.97391 14 8.31304 14 8.66667V11.3333H12.6667" stroke="white" stroke-width="1.5" stroke-linecap="round" stroke-linejoin="round"/>
<path d="M10 11.3333H6" stroke="white" stroke-width="1.5" stroke-linecap="round" stroke-linejoin="round"/>
<path d="M2 7.33331H12" stroke="white" stroke-width="1.5" stroke-linecap="round" stroke-linejoin="round"/>
</svg>
